<mxfile host="app.diagrams.net" agent="Mozilla/5.0 (Windows NT 10.0; Win64; x64) AppleWebKit/537.36 (KHTML, like Gecko) Chrome/130.0.0.0 Safari/537.36 Edg/130.0.0.0" version="24.8.3">
  <diagram name="Page-1" id="PEPDBnv7BUjbLOJwQsaa">
    <mxGraphModel dx="786" dy="423" grid="0" gridSize="10" guides="1" tooltips="1" connect="1" arrows="1" fold="1" page="1" pageScale="1" pageWidth="850" pageHeight="1100" math="0" shadow="0">
      <root>
        <mxCell id="0" />
        <mxCell id="1" parent="0" />
        <mxCell id="f1IOmGDggXInAyf-Hdgl-21" value="&lt;b&gt;Message API&lt;/b&gt;" style="swimlane;fontStyle=0;childLayout=stackLayout;horizontal=1;startSize=30;horizontalStack=0;resizeParent=1;resizeParentMax=0;resizeLast=0;collapsible=1;marginBottom=0;whiteSpace=wrap;html=1;" vertex="1" parent="1">
          <mxGeometry x="140" y="140" width="163" height="197" as="geometry" />
        </mxCell>
        <mxCell id="f1IOmGDggXInAyf-Hdgl-24" value="MessageId: string&lt;div&gt;FromUserId: string&lt;/div&gt;&lt;div&gt;ToUserId: string&lt;/div&gt;&lt;div&gt;Content: string&lt;/div&gt;&lt;div&gt;TimeStamp: date&lt;/div&gt;&lt;div&gt;&lt;br&gt;&lt;/div&gt;&lt;div&gt;SendMessages()&lt;/div&gt;&lt;div&gt;ReceiveMessages()&lt;/div&gt;&lt;div&gt;MarkasRead()&lt;/div&gt;&lt;div&gt;&lt;br&gt;&lt;/div&gt;" style="text;strokeColor=none;fillColor=none;align=left;verticalAlign=middle;spacingLeft=4;spacingRight=4;overflow=hidden;points=[[0,0.5],[1,0.5]];portConstraint=eastwest;rotatable=0;whiteSpace=wrap;html=1;" vertex="1" parent="f1IOmGDggXInAyf-Hdgl-21">
          <mxGeometry y="30" width="163" height="167" as="geometry" />
        </mxCell>
        <mxCell id="f1IOmGDggXInAyf-Hdgl-25" value="" style="endArrow=none;html=1;rounded=0;exitX=0;exitY=0.5;exitDx=0;exitDy=0;entryX=1;entryY=0.5;entryDx=0;entryDy=0;" edge="1" parent="f1IOmGDggXInAyf-Hdgl-21" source="f1IOmGDggXInAyf-Hdgl-24" target="f1IOmGDggXInAyf-Hdgl-24">
          <mxGeometry width="50" height="50" relative="1" as="geometry">
            <mxPoint x="239" y="149" as="sourcePoint" />
            <mxPoint x="289" y="99" as="targetPoint" />
          </mxGeometry>
        </mxCell>
        <mxCell id="f1IOmGDggXInAyf-Hdgl-26" value="&lt;b&gt;TaskManagement API&lt;/b&gt;" style="swimlane;fontStyle=0;childLayout=stackLayout;horizontal=1;startSize=30;horizontalStack=0;resizeParent=1;resizeParentMax=0;resizeLast=0;collapsible=1;marginBottom=0;whiteSpace=wrap;html=1;" vertex="1" parent="1">
          <mxGeometry x="338" y="143" width="163" height="197" as="geometry" />
        </mxCell>
        <mxCell id="f1IOmGDggXInAyf-Hdgl-27" value="taskId: string&lt;br&gt;&lt;div&gt;assignedTo: string&lt;/div&gt;&lt;div&gt;status: string&lt;/div&gt;&lt;div&gt;contact:string&lt;/div&gt;&lt;div&gt;&lt;br&gt;&lt;/div&gt;&lt;div&gt;&lt;br&gt;&lt;/div&gt;&lt;div&gt;createTask()&lt;/div&gt;&lt;div&gt;assignTask()&lt;/div&gt;&lt;div&gt;updateTaskStatus()&lt;/div&gt;&lt;div&gt;getTaskDetails()&lt;/div&gt;&lt;div&gt;&lt;br&gt;&lt;/div&gt;" style="text;strokeColor=none;fillColor=none;align=left;verticalAlign=middle;spacingLeft=4;spacingRight=4;overflow=hidden;points=[[0,0.5],[1,0.5]];portConstraint=eastwest;rotatable=0;whiteSpace=wrap;html=1;" vertex="1" parent="f1IOmGDggXInAyf-Hdgl-26">
          <mxGeometry y="30" width="163" height="167" as="geometry" />
        </mxCell>
        <mxCell id="f1IOmGDggXInAyf-Hdgl-28" value="" style="endArrow=none;html=1;rounded=0;exitX=0;exitY=0.5;exitDx=0;exitDy=0;entryX=1;entryY=0.5;entryDx=0;entryDy=0;" edge="1" parent="f1IOmGDggXInAyf-Hdgl-26" source="f1IOmGDggXInAyf-Hdgl-27" target="f1IOmGDggXInAyf-Hdgl-27">
          <mxGeometry width="50" height="50" relative="1" as="geometry">
            <mxPoint x="239" y="149" as="sourcePoint" />
            <mxPoint x="289" y="99" as="targetPoint" />
          </mxGeometry>
        </mxCell>
        <mxCell id="f1IOmGDggXInAyf-Hdgl-29" value="&lt;b&gt;contacts API&lt;/b&gt;" style="swimlane;fontStyle=0;childLayout=stackLayout;horizontal=1;startSize=30;horizontalStack=0;resizeParent=1;resizeParentMax=0;resizeLast=0;collapsible=1;marginBottom=0;whiteSpace=wrap;html=1;" vertex="1" parent="1">
          <mxGeometry x="530" y="146" width="163" height="148" as="geometry" />
        </mxCell>
        <mxCell id="f1IOmGDggXInAyf-Hdgl-30" value="contactId: string&lt;br&gt;&lt;div&gt;name: string&lt;/div&gt;&lt;div&gt;email: string&lt;/div&gt;&lt;div&gt;phonenumber: string&lt;/div&gt;&lt;div&gt;&lt;br&gt;&lt;/div&gt;&lt;div&gt;&lt;br&gt;&lt;/div&gt;&lt;div&gt;getContacts()&lt;/div&gt;&lt;div&gt;&lt;br&gt;&lt;/div&gt;&lt;div&gt;&lt;br&gt;&lt;/div&gt;" style="text;strokeColor=none;fillColor=none;align=left;verticalAlign=middle;spacingLeft=4;spacingRight=4;overflow=hidden;points=[[0,0.5],[1,0.5]];portConstraint=eastwest;rotatable=0;whiteSpace=wrap;html=1;" vertex="1" parent="f1IOmGDggXInAyf-Hdgl-29">
          <mxGeometry y="30" width="163" height="118" as="geometry" />
        </mxCell>
        <mxCell id="f1IOmGDggXInAyf-Hdgl-31" value="" style="endArrow=none;html=1;rounded=0;exitX=0;exitY=0.5;exitDx=0;exitDy=0;entryX=1;entryY=0.5;entryDx=0;entryDy=0;" edge="1" parent="f1IOmGDggXInAyf-Hdgl-29">
          <mxGeometry width="50" height="50" relative="1" as="geometry">
            <mxPoint y="101" as="sourcePoint" />
            <mxPoint x="163" y="101" as="targetPoint" />
            <Array as="points">
              <mxPoint x="95" y="101" />
            </Array>
          </mxGeometry>
        </mxCell>
        <mxCell id="f1IOmGDggXInAyf-Hdgl-32" value="AuthAPI" style="swimlane;fontStyle=1;align=center;verticalAlign=top;childLayout=stackLayout;horizontal=1;startSize=26;horizontalStack=0;resizeParent=1;resizeParentMax=0;resizeLast=0;collapsible=1;marginBottom=0;whiteSpace=wrap;html=1;" vertex="1" parent="1">
          <mxGeometry x="97" y="353" width="160" height="86" as="geometry" />
        </mxCell>
        <mxCell id="f1IOmGDggXInAyf-Hdgl-33" value="+ field: type" style="text;strokeColor=none;fillColor=none;align=left;verticalAlign=top;spacingLeft=4;spacingRight=4;overflow=hidden;rotatable=0;points=[[0,0.5],[1,0.5]];portConstraint=eastwest;whiteSpace=wrap;html=1;" vertex="1" parent="f1IOmGDggXInAyf-Hdgl-32">
          <mxGeometry y="26" width="160" height="26" as="geometry" />
        </mxCell>
        <mxCell id="f1IOmGDggXInAyf-Hdgl-34" value="" style="line;strokeWidth=1;fillColor=none;align=left;verticalAlign=middle;spacingTop=-1;spacingLeft=3;spacingRight=3;rotatable=0;labelPosition=right;points=[];portConstraint=eastwest;strokeColor=inherit;" vertex="1" parent="f1IOmGDggXInAyf-Hdgl-32">
          <mxGeometry y="52" width="160" height="8" as="geometry" />
        </mxCell>
        <mxCell id="f1IOmGDggXInAyf-Hdgl-35" value="+ method(type): type" style="text;strokeColor=none;fillColor=none;align=left;verticalAlign=top;spacingLeft=4;spacingRight=4;overflow=hidden;rotatable=0;points=[[0,0.5],[1,0.5]];portConstraint=eastwest;whiteSpace=wrap;html=1;" vertex="1" parent="f1IOmGDggXInAyf-Hdgl-32">
          <mxGeometry y="60" width="160" height="26" as="geometry" />
        </mxCell>
        <mxCell id="f1IOmGDggXInAyf-Hdgl-36" value="&lt;b&gt;Auth API&lt;/b&gt;" style="swimlane;fontStyle=0;childLayout=stackLayout;horizontal=1;startSize=30;horizontalStack=0;resizeParent=1;resizeParentMax=0;resizeLast=0;collapsible=1;marginBottom=0;whiteSpace=wrap;html=1;" vertex="1" parent="1">
          <mxGeometry x="335" y="350" width="163" height="156" as="geometry" />
        </mxCell>
        <mxCell id="f1IOmGDggXInAyf-Hdgl-37" value="name: string&lt;br&gt;&lt;div&gt;email: string&lt;/div&gt;&lt;div&gt;password: string&lt;/div&gt;&lt;div&gt;phone: string&lt;/div&gt;&lt;div&gt;&lt;br&gt;&lt;/div&gt;&lt;div&gt;&lt;br&gt;&lt;/div&gt;&lt;div&gt;login()&lt;/div&gt;&lt;div&gt;register()&lt;/div&gt;&lt;div&gt;&lt;br&gt;&lt;/div&gt;&lt;div&gt;&lt;br&gt;&lt;/div&gt;&lt;div&gt;&lt;br&gt;&lt;/div&gt;" style="text;strokeColor=none;fillColor=none;align=left;verticalAlign=middle;spacingLeft=4;spacingRight=4;overflow=hidden;points=[[0,0.5],[1,0.5]];portConstraint=eastwest;rotatable=0;whiteSpace=wrap;html=1;" vertex="1" parent="f1IOmGDggXInAyf-Hdgl-36">
          <mxGeometry y="30" width="163" height="126" as="geometry" />
        </mxCell>
        <mxCell id="f1IOmGDggXInAyf-Hdgl-38" value="" style="endArrow=none;html=1;rounded=0;exitX=0;exitY=0.5;exitDx=0;exitDy=0;entryX=1;entryY=0.5;entryDx=0;entryDy=0;" edge="1" parent="f1IOmGDggXInAyf-Hdgl-36" source="f1IOmGDggXInAyf-Hdgl-37" target="f1IOmGDggXInAyf-Hdgl-37">
          <mxGeometry width="50" height="50" relative="1" as="geometry">
            <mxPoint x="239" y="149" as="sourcePoint" />
            <mxPoint x="289" y="99" as="targetPoint" />
          </mxGeometry>
        </mxCell>
      </root>
    </mxGraphModel>
  </diagram>
</mxfile>
